<svg width="98" height="16" viewBox="0 0 98 16" fill="none" xmlns="http://www.w3.org/2000/svg">
<path d="M0 15.9391V1.66431H1.89517V15.9391H0ZM12.8087 15.9391H10.2383L3.65528 10.454C3.00613 9.91155 2.6772 9.29072 2.6772 8.60018C2.6772 8.05777 2.96909 7.53279 3.55289 7.03177L9.58911 1.67084H12.0572L5.33043 7.56111C5.28904 7.6025 5.21715 7.66349 5.11477 7.74627C5.01239 7.82905 4.93615 7.89004 4.88822 7.94232C4.8403 7.99024 4.78148 8.04906 4.71613 8.12748C4.65078 8.2059 4.60286 8.28214 4.57236 8.36056C4.54187 8.44334 4.53097 8.52176 4.53097 8.60454C4.53097 8.94436 4.85337 9.3735 5.49163 9.88759L12.8087 15.9391Z" fill="white"/>
<path d="M23.6004 15.9391H15.0743C14.7105 15.9391 14.4012 15.8323 14.155 15.6101C13.9111 15.3945 13.7913 15.0546 13.7913 14.5907C13.7913 13.9655 14.0287 13.4688 14.5058 13.1007L21.3567 8.02727C21.7619 7.72884 22.0298 7.40644 22.1627 7.06662C22.2955 6.7268 22.3587 6.2432 22.3587 5.61802C22.3587 4.79024 22.2454 4.18684 22.0124 3.80563C21.7793 3.42442 21.2739 3.23272 20.4853 3.23272H14.7977V1.66431H21.0582C22.2389 1.66431 23.0798 1.96274 23.5677 2.55307C24.0557 3.14341 24.3018 4.10406 24.3018 5.43939C24.3018 6.37608 24.1885 7.12108 23.9555 7.66349C23.7224 8.2059 23.2627 8.73742 22.5722 9.25587L16.2506 13.9851C16.0894 14.1223 16.0066 14.2116 16.0066 14.253C16.0066 14.3489 16.0655 14.3968 16.1918 14.3968H23.6156V15.9412H23.5982L23.6004 15.9391Z" fill="white"/>
<path d="M30.6062 6.9162H29.4495V1.67944H30.6062V6.9162ZM34.4292 6.9162H33.035L31.129 4.83152C30.9307 4.61368 30.8327 4.4111 30.8327 4.2194C30.8327 4.04078 30.9547 3.81423 31.1987 3.53758L32.8695 1.67944H34.2418L32.2552 3.79462C32.0896 3.96018 32.009 4.10177 32.009 4.2194C32.009 4.33703 32.0722 4.45902 32.1964 4.58537L34.4292 6.9162Z" fill="#00F695"/>
<path d="M40.1212 6.9163H38.9645L39.0037 3.19132C39.0037 3.09983 38.9841 3.05191 38.9449 3.05191C38.9122 3.05191 38.8665 3.09765 38.8055 3.19132L36.503 6.56123C36.405 6.71372 36.3004 6.82046 36.1915 6.88145C36.0826 6.94462 35.9366 6.97512 35.7515 6.97512C35.2439 6.97512 34.9912 6.72896 34.9912 6.23448V1.67954H36.1479L36.0978 5.40453C36.0978 5.49602 36.124 5.54394 36.1762 5.54394C36.2154 5.54394 36.2612 5.49819 36.3156 5.40453L38.6465 1.9758C38.8055 1.73836 39.0408 1.62073 39.3588 1.62073C39.4242 1.62073 39.4895 1.62726 39.5505 1.64033C39.6137 1.6534 39.6943 1.68172 39.7923 1.72529C39.8903 1.76886 39.9709 1.84945 40.0297 1.97144C40.0886 2.09343 40.1191 2.24374 40.1191 2.42018V6.9163H40.1212Z" fill="#00F695"/>
<path d="M45.7916 0.888768H43.5087C43.0861 0.888768 42.7702 0.962832 42.5546 1.11096C42.3411 1.25909 42.2343 1.52049 42.2343 1.89735H43.9923C44.7569 1.89735 45.2971 2.09122 45.6173 2.48114C45.9375 2.86889 46.0966 3.4919 46.0966 4.34799C46.0966 4.84248 46.0617 5.24547 45.992 5.55916C45.9223 5.87284 45.7938 6.14078 45.6064 6.36515C45.4191 6.58952 45.1599 6.74636 44.8309 6.84003C44.502 6.93152 44.0772 6.97726 43.5566 6.97726C42.6744 6.97726 42.0405 6.83131 41.6549 6.53724C41.2693 6.24316 41.0776 5.69204 41.0776 4.88169V2.04547C41.0776 1.39415 41.2367 0.888768 41.5525 0.533696C41.8684 0.178625 42.3433 0 42.975 0H45.7916V0.888768ZM42.2343 2.78611V4.87951C42.2343 5.68332 42.67 6.08414 43.5392 6.08414C44.0925 6.08414 44.4584 5.9469 44.6349 5.67025C44.8113 5.3936 44.9006 4.9514 44.9006 4.34581C44.9006 3.87093 44.8179 3.4919 44.6545 3.20871C44.4889 2.92553 44.184 2.78393 43.7352 2.78393H42.2343V2.78611Z" fill="#00F695"/>
<path d="M51.7211 6.9163H48.8173C48.4078 6.9163 48.0723 6.85967 47.8044 6.74857C47.5386 6.63747 47.336 6.46103 47.1966 6.21923C47.0594 5.97961 46.9635 5.7095 46.9156 5.41324C46.8655 5.11698 46.8416 4.74231 46.8416 4.28703C46.8416 3.27192 47.0332 2.57485 47.4188 2.19363C47.8044 1.81242 48.4535 1.62073 49.3706 1.62073C50.1875 1.62073 50.8105 1.77103 51.2418 2.06947C51.6731 2.37008 51.8888 2.91031 51.8888 3.69452C51.8888 4.35238 51.6187 4.68349 51.0785 4.68349H48.0353C48.0353 5.13877 48.1094 5.47641 48.2575 5.69642C48.4056 5.91644 48.7062 6.02753 49.1615 6.02753H51.7211V6.9163ZM48.0353 3.79472H50.4358C50.6079 3.79472 50.6929 3.69234 50.6929 3.48758C50.6929 3.16518 50.5665 2.9212 50.3117 2.75565C50.059 2.59227 49.7431 2.5095 49.3684 2.5095C48.8805 2.5095 48.5363 2.6097 48.3359 2.81011C48.1355 3.01052 48.0353 3.33945 48.0353 3.79254V3.79472Z" fill="#00F695"/>
<path d="M53.6771 1.67944H55.5047C56.302 1.67944 56.8575 1.89946 57.1755 2.34166C57.4914 2.78387 57.6504 3.43302 57.6504 4.28911C57.6504 5.1452 57.4914 5.79653 57.1712 6.24527C56.851 6.69401 56.2977 6.9162 55.5069 6.9162H53.945V8.59571H52.7883V2.56821C52.7883 1.9757 53.0846 1.67944 53.6771 1.67944ZM53.9429 2.82526V6.02526H55.2172C55.7248 6.02526 56.058 5.87931 56.2149 5.58959C56.3717 5.29987 56.4523 4.86419 56.4523 4.28475C56.4523 4.00157 56.4393 3.76848 56.4131 3.58768C56.387 3.40688 56.3347 3.23043 56.2541 3.05834C56.1757 2.88625 56.0493 2.76208 55.8794 2.68366C55.7073 2.60524 55.4873 2.56603 55.2172 2.56603H54.2391C54.0409 2.56603 53.9429 2.65099 53.9429 2.82308V2.82526Z" fill="#00F695"/>
<path d="M34.1634 9.91147H31.8805C31.4579 9.91147 31.142 9.98554 30.9264 10.1337C30.7129 10.2818 30.6062 10.5432 30.6062 10.9201H32.3641C33.1287 10.9201 33.6689 11.1139 33.9891 11.5038C34.3094 11.8916 34.4684 12.5146 34.4684 13.3707C34.4684 13.8652 34.4335 14.2682 34.3638 14.5819C34.2941 14.8955 34.1656 15.1635 33.9783 15.3879C33.7909 15.6122 33.5317 15.7691 33.2028 15.8627C32.8738 15.9542 32.4491 16 31.9284 16C31.0462 16 30.4123 15.854 30.0267 15.5599C29.6412 15.2659 29.4495 14.7147 29.4495 13.9044V11.0682C29.4495 10.4169 29.6085 9.91147 29.9243 9.5564C30.2402 9.20133 30.7151 9.02271 31.3468 9.02271H34.1634V9.91147ZM30.6062 11.8088V13.9022C30.6062 14.706 31.0418 15.1068 31.911 15.1068C32.4643 15.1068 32.8303 14.9696 33.0067 14.693C33.1832 14.4163 33.2725 13.9741 33.2725 13.3685C33.2725 12.8936 33.1897 12.5146 33.0263 12.2314C32.8608 11.9482 32.5558 11.8066 32.1071 11.8066H30.6062V11.8088Z" fill="#00F695"/>
<path d="M40.0907 15.9368H37.1869C36.7774 15.9368 36.442 15.8802 36.174 15.7691C35.9083 15.658 35.7057 15.4815 35.5663 15.2397C35.429 15.0001 35.3332 14.73 35.2852 14.4337C35.2351 14.1375 35.2112 13.7628 35.2112 13.3075C35.2112 12.2924 35.4029 11.5954 35.7884 11.2141C36.174 10.8329 36.8232 10.6412 37.7402 10.6412C38.5571 10.6412 39.1801 10.7915 39.6115 11.09C40.0428 11.3906 40.2584 11.9308 40.2584 12.715C40.2584 13.3729 39.9883 13.704 39.4481 13.704H36.4049C36.4049 14.1593 36.479 14.4969 36.6271 14.7169C36.7752 14.9369 37.0759 15.048 37.5311 15.048H40.0907V15.9368ZM36.4049 12.8152H38.8055C38.9776 12.8152 39.0625 12.7128 39.0625 12.5081C39.0625 12.1857 38.9362 11.9417 38.6813 11.7762C38.4286 11.6128 38.1127 11.53 37.7381 11.53C37.2501 11.53 36.9059 11.6302 36.7055 11.8306C36.5051 12.031 36.4049 12.36 36.4049 12.8131V12.8152Z" fill="#00F695"/>
<path d="M44.2122 15.9368H41.0994V15.0481H43.7766C44.0205 15.0481 44.1926 14.9958 44.295 14.889C44.3974 14.7845 44.4475 14.6059 44.4475 14.3554C44.4475 13.9001 44.2231 13.6735 43.7766 13.6735H41.2475V12.7848H43.7766C44.197 12.7848 44.4083 12.5843 44.4083 12.1814C44.4083 11.7784 44.197 11.5888 43.7766 11.5888H41.1887V10.7001H44.1425C44.6239 10.7001 44.9877 10.7916 45.2339 10.9724C45.48 11.1532 45.6042 11.4777 45.6042 11.9461C45.6042 12.3338 45.5454 12.6323 45.4256 12.8392C45.3079 13.0462 45.0792 13.1703 44.7438 13.2095V13.2487C45.0858 13.3076 45.321 13.4317 45.4495 13.6191C45.5781 13.8064 45.6412 14.0852 45.6412 14.4534C45.6412 14.9675 45.5345 15.3421 45.321 15.5796C45.1075 15.817 44.7372 15.9347 44.2101 15.9347L44.2122 15.9368Z" fill="#00F695"/>
<path d="M47.0878 11.225C47.53 10.8373 48.2379 10.6412 49.2117 10.6412C50.1854 10.6412 50.8955 10.8351 51.3355 11.225C51.7778 11.6128 51.9978 12.3077 51.9978 13.3097C51.9978 14.3118 51.7778 15.0263 51.3399 15.414C50.9021 15.8018 50.1919 15.9978 49.2117 15.9978C48.2314 15.9978 47.5212 15.8039 47.0834 15.414C46.6455 15.0263 46.4255 14.3248 46.4255 13.3097C46.4255 12.2946 46.6455 11.615 47.0878 11.225ZM47.6215 13.3097C47.6215 13.961 47.7391 14.425 47.9765 14.6973C48.214 14.9718 48.6257 15.1069 49.2117 15.1069C49.7976 15.1069 50.2093 14.9696 50.4468 14.6973C50.6842 14.425 50.8018 13.961 50.8018 13.3097C50.8018 12.6584 50.6842 12.2075 50.4468 11.9374C50.2093 11.6672 49.7976 11.5322 49.2117 11.5322C48.6257 11.5322 48.214 11.6672 47.9765 11.9374C47.7391 12.2075 47.6215 12.6649 47.6215 13.3097Z" fill="#00F695"/>
<path d="M52.8952 15.9368V11.5888C52.8952 10.9963 53.1915 10.7001 53.784 10.7001H56.8272C57.4197 10.7001 57.7159 10.9963 57.7159 11.5888V15.9368H56.5592V11.8851C56.5592 11.6869 56.4612 11.5888 56.263 11.5888H54.346C54.1478 11.5888 54.0498 11.6869 54.0498 11.8851V15.9368H52.8931H52.8952Z" fill="#00F695"/>
<path d="M58.9532 10.7023H61.9266C62.408 10.7023 62.774 10.8439 63.0223 11.127C63.2707 11.4102 63.397 11.7827 63.397 12.2445V15.0503C63.397 15.6428 63.1008 15.939 62.5082 15.939H59.8703C59.0011 15.939 58.5654 15.3966 58.5654 14.3096C58.5654 13.8021 58.6743 13.4034 58.8922 13.1137C59.11 12.824 59.4368 12.678 59.8703 12.678H62.2425V12.3426C62.2425 11.8415 61.9985 11.591 61.5106 11.591H58.951V10.7023H58.9532ZM62.2425 13.5668H60.3168C59.9487 13.5668 59.7635 13.813 59.7635 14.3074C59.7635 14.8019 59.9487 15.0481 60.3168 15.0481H61.9462C62.1445 15.0481 62.2425 14.9501 62.2425 14.7518V13.5668Z" fill="#00F695"/>
<path d="M68.6839 11.591H66.7779C66.5404 11.591 66.34 11.6215 66.1744 11.6803C66.0089 11.7391 65.8804 11.8154 65.7845 11.9069C65.6887 11.9984 65.6146 12.1247 65.5623 12.2816C65.51 12.4406 65.4774 12.5952 65.4643 12.7455C65.4512 12.898 65.4447 13.0854 65.4447 13.3076C65.4447 13.5907 65.4578 13.8238 65.4839 14.0046C65.51 14.1854 65.5667 14.3641 65.6516 14.5383C65.7366 14.7126 65.8738 14.8411 66.0612 14.9239C66.2485 15.0067 66.4881 15.0481 66.7779 15.0481H68.8037V15.9368H66.4925C65.656 15.9368 65.0722 15.7146 64.7433 15.2703C64.4143 14.8259 64.2488 14.1724 64.2488 13.3097C64.2488 12.4471 64.4122 11.8045 64.7433 11.3623C65.0722 10.9201 65.656 10.7001 66.4925 10.7001H68.6861V11.5888L68.6839 11.591Z" fill="#00F695"/>
<path d="M74.4543 15.9368H73.2976V13.6844H70.7968V15.9368H69.6401V10.7001H70.7968V12.7935H73.2976V10.7001H74.4543V15.9368Z" fill="#00F695"/>
<path d="M76.0162 11.225C76.4584 10.8373 77.1664 10.6412 78.1401 10.6412C79.1138 10.6412 79.8218 10.8351 80.264 11.225C80.7062 11.6128 80.9262 12.3077 80.9262 13.3097C80.9262 14.3118 80.7062 15.0263 80.2684 15.414C79.8305 15.8018 79.1204 15.9978 78.1401 15.9978C77.1599 15.9978 76.4497 15.8039 76.0119 15.414C75.574 15.0263 75.354 14.3248 75.354 13.3097C75.354 12.2946 75.574 11.615 76.0162 11.225ZM76.5499 13.3097C76.5499 13.961 76.6675 14.425 76.905 14.6973C77.1424 14.9718 77.5541 15.1069 78.1401 15.1069C78.7261 15.1069 79.1378 14.9696 79.3752 14.6973C79.6127 14.425 79.7303 13.961 79.7303 13.3097C79.7303 12.6584 79.6127 12.2075 79.3752 11.9374C79.1378 11.6672 78.7261 11.5322 78.1401 11.5322C77.5541 11.5322 77.1424 11.6672 76.905 11.9374C76.6675 12.2075 76.5499 12.6649 76.5499 13.3097Z" fill="#00F695"/>
<path d="M86.1019 11.591H84.1958C83.9584 11.591 83.758 11.6215 83.5924 11.6803C83.4269 11.7391 83.2983 11.8154 83.2025 11.9069C83.1066 11.9984 83.0326 12.1247 82.9803 12.2816C82.928 12.4406 82.8953 12.5952 82.8823 12.7455C82.8692 12.898 82.8627 13.0854 82.8627 13.3076C82.8627 13.5907 82.8757 13.8238 82.9019 14.0046C82.928 14.1854 82.9847 14.3641 83.0696 14.5383C83.1546 14.7126 83.2918 14.8411 83.4791 14.9239C83.6665 15.0067 83.9061 15.0481 84.1958 15.0481H86.2217V15.9368H83.9105C83.074 15.9368 82.4902 15.7146 82.1612 15.2703C81.8323 14.8259 81.6667 14.1724 81.6667 13.3097C81.6667 12.4471 81.8301 11.8045 82.1612 11.3623C82.4902 10.9201 83.074 10.7001 83.9105 10.7001H86.1041V11.5888L86.1019 11.591Z" fill="#00F695"/>
<path d="M89.9751 15.9368H88.8184V11.5888H86.8513V10.7001H91.94V11.5888H89.9729V15.9368H89.9751Z" fill="#00F695"/>
<path d="M96.2095 15.9368H93.5824C92.9899 15.9368 92.6936 15.6406 92.6936 15.0481V10.7001H93.8503V12.6867H96.2116C96.6996 12.6867 97.0416 12.824 97.2398 13.0963C97.4381 13.3707 97.5361 13.7737 97.5361 14.3074C97.5361 14.8411 97.4381 15.2463 97.2398 15.5229C97.0416 15.7996 96.6996 15.9368 96.2116 15.9368H96.2095ZM93.8481 13.5755V14.7518C93.8481 14.95 93.9461 15.0481 94.1444 15.0481H95.7259C95.9633 15.0481 96.1245 14.9914 96.2095 14.876C96.2944 14.7605 96.338 14.571 96.338 14.3074C96.338 14.0438 96.2944 13.8565 96.2095 13.7454C96.1245 13.6343 95.9633 13.5777 95.7259 13.5777H93.8481V13.5755Z" fill="#00F695"/>
</svg>
